# xmcd
#
# Track frame offsets: 
#        150
#        24190
#        43770
#        64685
#        85616
#        101695
#        118538
#        140164
#        160692
#        184364
#        203475
#        228502
#        252642
#        268715
#        289710
#
# Disc length: 4123 seconds
#
# Revision: 0
# Processed by: cddbd v1.5.2PL0 Copyright (c) Steve Scherf et al.
# Submitted via: ExactAudioCopy v0.99pb4
#
DISCID=d210190f
DTITLE=Cam Ly - Ben Vang - Biet Yeu Khi Nao
DYEAR=1900
DGENRE=Vietnamese
TTITLE0=ben vang
TTITLE1=biet yeu khi nao
TTITLE2=tha rang chia tay
TTITLE3=nho nha
TTITLE4=giac mo ta ao trang
TTITLE5=me
TTITLE6=tuong tu
TTITLE7=mua thu ky niem
TTITLE8=som chong
TTITLE9=tinh yeu dau tien
TTITLE10=biet ly
TTITLE11=ben vang (karaoke version)
TTITLE12=giac mo ta ao trang (karaoke version)
TTITLE13=biet yeu khi nao (karaoke version)
TTITLE14=tha rang chia tay (karaoke version)
EXTD=
EXTT0=
EXTT1=
EXTT2=
EXTT3=
EXTT4=
EXTT5=
EXTT6=
EXTT7=
EXTT8=
EXTT9=
EXTT10=
EXTT11=
EXTT12=
EXTT13=
EXTT14=
PLAYORDER=
